<svg version="1.1" xmlns="http://www.w3.org/2000/svg" xmlns:xlink="http://www.w3.org/1999/xlink" width="35" height="35" viewBox="0,0,35,35"><g transform="translate(-222.5,-162.5)"><g stroke="#000000" stroke-miterlimit="10"><path d="M223.5,196.5v-33h33v33z" fill="#ffffff" stroke-width="2" stroke-linecap="butt" stroke-linejoin="miter"/><path d="M247.5,187.75568h0.015M248.1,183.10227h0.9c1.39785,0 2.0967,0 2.6481,0.23608c0.735,0.31488 1.3191,0.91889 1.6236,1.67895c0.2283,0.5702 0.2283,1.29287 0.2283,2.73838c0,1.4455 0,2.16818 -0.2283,2.73838c-0.3045,0.76006 -0.8886,1.36407 -1.6236,1.67895c-0.5514,0.23608 -1.25025,0.23608 -2.6481,0.23608h-18c-1.39782,0 -2.09673,0 -2.64805,-0.23608c-0.73508,-0.31488 -1.3191,-0.91889 -1.62359,-1.67895c-0.22836,-0.5702 -0.22836,-1.29287 -0.22836,-2.73838c0,-1.4455 0,-2.16818 0.22836,-2.73838c0.30448,-0.76006 0.88851,-1.36407 1.62359,-1.67895c0.55132,-0.23608 1.25023,-0.23608 2.64805,-0.23608h0.9M240,184.65341v-17.0625M240,184.65341l-4.5,-4.65341M240,184.65341l4.5,-4.65341" fill="none" stroke-width="2.5" stroke-linecap="round" stroke-linejoin="round"/></g></g></svg>