<svg version="1.1" xmlns="http://www.w3.org/2000/svg" xmlns:xlink="http://www.w3.org/1999/xlink" width="24.4992" height="28.5871" viewBox="0,0,24.4992,28.5871"><g transform="translate(-227.7504,-165.70645)"><g stroke="none" stroke-miterlimit="10"><path d="M251.87907,187.03043c-0.45394,0.87021 -1.26319,1.47857 -2.20741,1.67759v2.33259c0,0.84226 -0.32928,1.69623 -1.01013,2.34599c-0.58426,0.55863 -1.37306,0.90695 -2.24275,0.90695c-2.07348,0 -0.43251,0 -2.00087,0c-0.87073,0 -1.65762,-0.34838 -2.24182,-0.90695c-0.13491,-0.12839 -0.25213,-0.27163 -0.36287,-0.41953h-2.31245h-9.27605c-1.36456,0 -2.47432,-1.11022 -2.47432,-2.47432v-22.31198c0,-1.36415 1.1097,-2.47432 2.47432,-2.47432h12.66752c0.38704,0 0.75253,0.15069 1.02702,0.42512l4.20915,4.20956c0.27448,0.27396 0.42611,0.63911 0.42611,1.02742v5.97805v0.66181v1.20275l3.10784,4.45382c0.69663,0.99767 0.77932,2.28741 0.21672,3.36543zM235.61065,189.86338h4.95516h0.59916v-1.15535c-0.94433,-0.19902 -1.75352,-0.80738 -2.20741,-1.67759c-0.56277,-1.07808 -0.47997,-2.36782 0.21672,-3.36549l3.586,-5.14033c0.66409,-0.94183 1.7031,-1.39018 2.73285,-1.36602v-0.00227h0.01485v-3.86497h-2.72272c-0.97019,0 -1.759,-0.78922 -1.759,-1.759v-2.72225h-10.22947v21.05333h4.81385zM249.55259,185.13705l-3.57674,-5.12775c-0.1274,-0.18184 -0.33574,-0.29021 -0.55712,-0.29021h-0.00099c-0.22132,0 -0.42978,0.10836 -0.55724,0.29021l-3.57657,5.12775c-0.14603,0.20845 -0.16275,0.4777 -0.04559,0.70281c0.11809,0.22511 0.34878,0.36514 0.60184,0.36514h0.00093h1.8967v4.83568c0,0.37481 0.30505,0.67905 0.67905,0.67905h0.00099h2.00081h0.00099c0.37382,0 0.67887,-0.30424 0.67887,-0.67905v-4.83568h1.89676h0.00093c0.25312,0 0.4837,-0.14004 0.6019,-0.36514c0.11715,-0.22511 0.10038,-0.49441 -0.04553,-0.70281z" fill="#000000" stroke-width="1"/><path d="M249.60209,185.13008c0.14591,0.2084 0.16315,0.48611 0.046,0.71122c-0.1182,0.2251 -0.34921,0.37042 -0.60233,0.37042l-0.00093,0l-1.89827,0.00716l-0.03298,4.86948c0,0.37481 -0.31187,0.68069 -0.68569,0.68069l-0.001,0l-2.01726,0l-0.001,0c-0.374,0 -0.68588,-0.30588 -0.68588,-0.68069l-0.03298,-4.86948l-1.89821,-0.00715l-0.00093,0c-0.25306,0 -0.48418,-0.14531 -0.60227,-0.37042c-0.11716,-0.22511 -0.09997,-0.50277 0.04606,-0.71122l3.62122,-5.17054c0.12746,-0.18185 0.34078,-0.29045 0.5621,-0.29045l0.001,0c0.22138,0 0.43458,0.10861 0.56198,0.29045l3.62139,5.17054z" fill="#27ff00" stroke-width="0.5"/><path d="M235.5989,189.91204l-4.83075,-0.00762v-21.1353l10.27128,-0.00725l0.00411,2.72356c0,0.96978 0.80195,1.76623 1.77214,1.76623l2.73093,0.00794l0.00931,3.88251l-0.11072,0.02845l0,0.00226c-1.02975,-0.02416 -1.97158,0.40129 -2.63567,1.34312l-3.62375,5.19767c-0.69669,0.99767 -0.79618,2.18902 -0.23341,3.2671c0.45389,0.87021 1.25298,1.4807 2.19731,1.67972l0.02906,1.25102l-0.60174,0.00067l-4.97807,-0.00013z" fill="#424242" stroke-width="0.5"/></g></g></svg>