<svg version="1.1" xmlns="http://www.w3.org/2000/svg" xmlns:xlink="http://www.w3.org/1999/xlink" width="901" height="601" viewBox="0,0,901,601"><g transform="translate(210.5,120.5)"><g stroke-linejoin="bevel" stroke-miterlimit="10"><path d="M222,118l56,49h-62z" fill="#19435d" stroke="#19435d"/><path d="M222,118l103,-59l-47,108z" fill="#00101c" stroke="#00101c"/><path d="M216,167l-49,81l-93,-76z" fill="#00101c" stroke="#00101c"/><path d="M278,167l-111,81l49,-81z" fill="#1d4e6b" stroke="#1d4e6b"/><path d="M222,118l67,-106l36,47z" fill="#112e42" stroke="#112e42"/><path d="M325,59l69,41l-116,67z" fill="#112e42" stroke="#112e42"/><path d="M289,12l96,-38l-60,85z" fill="#1d4e6b" stroke="#1d4e6b"/><path d="M278,167l116,-67l32,58z" fill="#205a7a" stroke="#205a7a"/><path d="M278,167l35,127l-146,-46z" fill="#0c2435" stroke="#0c2435"/><path d="M222,118l-148,54l2,-130z" fill="#0c2435" stroke="#0c2435"/><path d="M216,167l-142,5l148,-54z" fill="#246688" stroke="#246688"/><path d="M222,118l-69,-122l136,16z" fill="#19435d" stroke="#19435d"/><path d="M278,167l101,98l-66,29z" fill="#0c2435" stroke="#0c2435"/><path d="M278,167l148,-9l-47,107z" fill="#00101c" stroke="#00101c"/><path d="M222,118l-146,-76l77,-46z" fill="#297ea6" stroke="#297ea6"/><path d="M76,42l23,-31l54,-15z" fill="#00101c" stroke="#00101c"/><path d="M394,100l-9,-126l94,15z" fill="#15384f" stroke="#15384f"/><path d="M325,59l60,-85l9,126z" fill="#297ea6" stroke="#297ea6"/><path d="M153,-4l62,-116l74,132z" fill="#205a7a" stroke="#205a7a"/><path d="M167,248l-76,57l-17,-133z" fill="#081a28" stroke="#081a28"/><path d="M313,294l-15,89l-98,11z" fill="#19435d" stroke="#19435d"/><path d="M167,248l146,46l-113,100z" fill="#112e42" stroke="#112e42"/><path d="M379,265v114l-66,-85z" fill="#15384f" stroke="#15384f"/><path d="M426,158l57,-75l21,116z" fill="#15384f" stroke="#15384f"/><path d="M394,100l89,-17l-57,75z" fill="#112e42" stroke="#112e42"/><path d="M167,248l33,146l-109,-89z" fill="#0c2435" stroke="#0c2435"/><path d="M426,158l78,41l-125,66z" fill="#1d4e6b" stroke="#1d4e6b"/><path d="M379,265l125,-66l17,50z" fill="#246688" stroke="#246688"/><path d="M289,12l-18,-132l114,94z" fill="#15384f" stroke="#15384f"/><path d="M99,11l-18,-131l72,116z" fill="#0c2435" stroke="#0c2435"/><path d="M289,12l-74,-132h56z" fill="#19435d" stroke="#19435d"/><path d="M298,383l81,-4l-54,101z" fill="#277297" stroke="#277297"/><path d="M313,294l66,85l-81,4z" fill="#277297" stroke="#277297"/><path d="M76,42l-100,67l7,-142z" fill="#15384f" stroke="#15384f"/><path d="M74,172l-98,-63l100,-67z" fill="#19435d" stroke="#19435d"/><path d="M91,305l-41,44l-95,-96z" fill="#112e42" stroke="#112e42"/><path d="M99,11l-23,31l-93,-75z" fill="#19435d" stroke="#19435d"/><path d="M394,100l85,-111l4,94z" fill="#112e42" stroke="#112e42"/><path d="M271,-120h109l5,94z" fill="#277297" stroke="#277297"/><path d="M483,83l-4,-94l78,20z" fill="#205a7a" stroke="#205a7a"/><path d="M200,394l-150,-45l41,-44z" fill="#246688" stroke="#246688"/><path d="M74,172l17,133l-136,-52z" fill="#081a28" stroke="#081a28"/><path d="M74,172l-109,8l11,-71z" fill="#246688" stroke="#246688"/><path d="M379,265l142,-16l-18,116z" fill="#205a7a" stroke="#205a7a"/><path d="M483,83l74,-74l61,90z" fill="#15384f" stroke="#15384f"/><path d="M385,-26l-5,-94l99,109z" fill="#19435d" stroke="#19435d"/><path d="M74,172l-119,81l10,-73z" fill="#112e42" stroke="#112e42"/><path d="M153,-4l-72,-116h134z" fill="#205a7a" stroke="#205a7a"/><path d="M99,11l-116,-44l98,-87z" fill="#0c2435" stroke="#0c2435"/><path d="M-35,180l-55,-83l66,12z" fill="#205a7a" stroke="#205a7a"/><path d="M-45,253l-44,23l-27,-79z" fill="#112e42" stroke="#112e42"/><path d="M379,265l124,100l-124,14z" fill="#246688" stroke="#246688"/><path d="M504,199l-21,-116l118,80z" fill="#1d4e6b" stroke="#1d4e6b"/><path d="M380,-120h124l-25,109z" fill="#277297" stroke="#277297"/><path d="M-24,109l-66,-12l73,-130z" fill="#277297" stroke="#277297"/><path d="M200,394l125,86h-159z" fill="#246688" stroke="#246688"/><path d="M298,383l27,97l-125,-86z" fill="#00101c" stroke="#00101c"/><path d="M503,365l-22,115l-102,-101z" fill="#297ea6" stroke="#297ea6"/><path d="M50,349l150,45l-83,86z" fill="#112e42" stroke="#112e42"/><path d="M200,394l-34,86h-49z" fill="#1d4e6b" stroke="#1d4e6b"/><path d="M50,349l-69,16l-26,-112z" fill="#0c2435" stroke="#0c2435"/><path d="M-45,253l26,112l-70,-89z" fill="#246688" stroke="#246688"/><path d="M521,249l80,-86l-31,153z" fill="#00101c" stroke="#00101c"/><path d="M504,199l97,-36l-80,86z" fill="#1d4e6b" stroke="#1d4e6b"/><path d="M379,379l-7,101h-47z" fill="#112e42" stroke="#112e42"/><path d="M50,349l67,131h-149z" fill="#1d4e6b" stroke="#1d4e6b"/><path d="M-35,180l-10,73l-71,-56z" fill="#112e42" stroke="#112e42"/><path d="M503,365l67,-49l55,72z" fill="#297ea6" stroke="#297ea6"/><path d="M521,249l49,67l-67,49z" fill="#205a7a" stroke="#205a7a"/><path d="M-35,180l-81,17l26,-100z" fill="#205a7a" stroke="#205a7a"/><path d="M479,-11l25,-109l53,129z" fill="#297ea6" stroke="#297ea6"/><path d="M601,163l17,-64l72,66z" fill="#1d4e6b" stroke="#1d4e6b"/><path d="M483,83l135,16l-17,64z" fill="#081a28" stroke="#081a28"/><path d="M504,-120h106l-53,129z" fill="#205a7a" stroke="#205a7a"/><path d="M-17,-33l-6,-87h104z" fill="#112e42" stroke="#112e42"/><path d="M-90,97l-48,-116l121,-14z" fill="#081a28" stroke="#081a28"/><path d="M379,379l102,101h-109z" fill="#081a28" stroke="#081a28"/><path d="M-17,-33l-121,14l24,-101z" fill="#1d4e6b" stroke="#1d4e6b"/><path d="M-116,197l-94,-18l120,-82z" fill="#297ea6" stroke="#297ea6"/><path d="M-19,365l-13,115h-54z" fill="#112e42" stroke="#112e42"/><path d="M50,349l-82,131l13,-115z" fill="#15384f" stroke="#15384f"/><path d="M-89,276l70,89l-127,-24z" fill="#277297" stroke="#277297"/><path d="M-116,197l27,79l-121,21z" fill="#112e42" stroke="#112e42"/><path d="M-89,276l-57,65l-64,-44z" fill="#246688" stroke="#246688"/><path d="M601,163l89,2v99z" fill="#19435d" stroke="#19435d"/><path d="M557,9l53,-129l80,84z" fill="#0c2435" stroke="#0c2435"/><path d="M570,316l31,-153l89,101z" fill="#081a28" stroke="#081a28"/><path d="M-17,-33l-97,-87h91z" fill="#00101c" stroke="#00101c"/><path d="M503,365l122,23l-19,92z" fill="#081a28" stroke="#081a28"/><path d="M618,99l-61,-90l133,32z" fill="#205a7a" stroke="#205a7a"/><path d="M618,99l72,-58v124z" fill="#1d4e6b" stroke="#1d4e6b"/><path d="M-90,97l-120,82v-129z" fill="#00101c" stroke="#00101c"/><path d="M-138,-19l48,116l-120,-47z" fill="#1d4e6b" stroke="#1d4e6b"/><path d="M570,316l120,-52l-65,124z" fill="#297ea6" stroke="#297ea6"/><path d="M-138,-19l-72,69v-41z" fill="#19435d" stroke="#19435d"/><path d="M-19,365l-67,115l-60,-139z" fill="#0c2435" stroke="#0c2435"/><path d="M-138,-19l-72,28v-129z" fill="#19435d" stroke="#19435d"/><path d="M557,9l133,-45v77z" fill="#1d4e6b" stroke="#1d4e6b"/><path d="M-116,197l-94,100v-118z" fill="#15384f" stroke="#15384f"/><path d="M-86,480h-124l64,-139z" fill="#15384f" stroke="#15384f"/><path d="M503,365l103,115h-125z" fill="#112e42" stroke="#112e42"/><path d="M690,264v151l-65,-27z" fill="#297ea6" stroke="#297ea6"/><path d="M-146,341l-64,13v-57z" fill="#1d4e6b" stroke="#1d4e6b"/><path d="M610,-120h80v84z" fill="#246688" stroke="#246688"/><path d="M625,388l65,27l-84,65z" fill="#081a28" stroke="#081a28"/><path d="M-138,-19l-72,-101h96z" fill="#112e42" stroke="#112e42"/><path d="M690,415v65h-84z" fill="#0c2435" stroke="#0c2435"/><path d="M-146,341l-64,139v-126z" fill="#205a7a" stroke="#205a7a"/></g></g></svg>