<svg version="1.1" xmlns="http://www.w3.org/2000/svg" xmlns:xlink="http://www.w3.org/1999/xlink" width="19.87356" height="26.92964" viewBox="0,0,19.87356,26.92964"><g transform="translate(-230.06322,-166.17964)"><g stroke="#000000" stroke-miterlimit="10"><path d="M249.43678,170.99216v8.18641c0,4.27486 -1.85647,8.39745 -5.21768,11.03889c-1.18989,0.9351 -2.59254,1.73937 -4.2191,2.22193c-1.62656,-0.48256 -3.02964,-1.28683 -4.2191,-2.22193c-3.36121,-2.64144 -5.21768,-6.76403 -5.21768,-11.03889v-8.18641c6.57701,0 9.43678,-3.43156 9.43678,-3.43156c0,0 2.85977,3.43156 9.43678,3.43156z" fill="#7dff00"/><path d="M240,167.56061v24.87879c-1.62656,-0.48256 -3.02964,-1.28683 -4.2191,-2.22193c-3.36121,-2.64144 -5.21768,-6.76403 -5.21768,-11.03889v-8.18641c6.57701,0 9.43678,-3.43156 9.43678,-3.43156z" fill="#5cbf00"/><path d="M240,189.72031c-0.91065,-0.35731 -1.79213,-0.86861 -2.62857,-1.52618c-2.65174,-2.08381 -4.23454,-5.45403 -4.23454,-9.01556v-5.77231c3.17033,-0.40449 5.42143,-1.50731 6.86311,-2.48702c1.44168,0.97971 3.69278,2.08253 6.86311,2.48702v5.77231c0,3.56153 -1.58281,6.93175 -4.23411,9.01556c-0.83687,0.65757 -1.71835,1.16887 -2.629,1.52618z" fill="#5cbf00"/><path d="M240,170.91967v18.80064c-0.91065,-0.35731 -1.79213,-0.86861 -2.62857,-1.52618c-2.65174,-2.08381 -4.23454,-5.45403 -4.23454,-9.01556v-5.77231c3.17033,-0.40407 5.42143,-1.50731 6.86311,-2.48659z" fill="#7dff00"/></g></g></svg>