<svg version="1.1" xmlns="http://www.w3.org/2000/svg" xmlns:xlink="http://www.w3.org/1999/xlink" width="35" height="35" viewBox="0,0,35,35"><g transform="translate(-222.5,-162.5)"><g stroke-miterlimit="10"><path d="M223.5,196.5v-33h33v33z" fill="#ffffff" stroke="#000000" stroke-width="2"/><path d="M251.87907,187.03043c-0.45394,0.87021 -1.26319,1.47857 -2.20741,1.67759v2.33259c0,0.84226 -0.32928,1.69623 -1.01013,2.34599c-0.58426,0.55863 -1.37306,0.90695 -2.24275,0.90695c-2.07348,0 -0.43251,0 -2.00087,0c-0.87073,0 -1.65762,-0.34838 -2.24182,-0.90695c-0.13491,-0.12839 -0.25213,-0.27163 -0.36287,-0.41953h-2.31245h-9.27605c-1.36456,0 -2.47432,-1.11022 -2.47432,-2.47432v-22.31198c0,-1.36415 1.1097,-2.47432 2.47432,-2.47432h12.66752c0.38704,0 0.75253,0.15069 1.02702,0.42512l4.20915,4.20956c0.27448,0.27396 0.42611,0.63911 0.42611,1.02742v5.97805v0.66181v1.20275l3.10784,4.45382c0.69663,0.99767 0.77932,2.28741 0.21672,3.36543zM235.61065,189.86338h4.95516h0.59916v-1.15535c-0.94433,-0.19902 -1.75352,-0.80738 -2.20741,-1.67759c-0.56277,-1.07808 -0.47997,-2.36782 0.21672,-3.36549l3.586,-5.14033c0.66409,-0.94183 1.7031,-1.39018 2.73285,-1.36602v-0.00227h0.01485v-3.86497h-2.72272c-0.97019,0 -1.759,-0.78922 -1.759,-1.759v-2.72225h-10.22947v21.05333h4.81385zM249.55259,185.13705l-3.57674,-5.12775c-0.1274,-0.18184 -0.33574,-0.29021 -0.55712,-0.29021h-0.00099c-0.22132,0 -0.42978,0.10836 -0.55724,0.29021l-3.57657,5.12775c-0.14603,0.20845 -0.16275,0.4777 -0.04559,0.70281c0.11809,0.22511 0.34878,0.36514 0.60184,0.36514h0.00093h1.8967v4.83568c0,0.37481 0.30505,0.67905 0.67905,0.67905h0.00099h2.00081h0.00099c0.37382,0 0.67887,-0.30424 0.67887,-0.67905v-4.83568h1.89676h0.00093c0.25312,0 0.4837,-0.14004 0.6019,-0.36514c0.11715,-0.22511 0.10038,-0.49441 -0.04553,-0.70281z" fill="#000000" stroke="none" stroke-width="1"/></g></g></svg>