<svg version="1.1" xmlns="http://www.w3.org/2000/svg" xmlns:xlink="http://www.w3.org/1999/xlink" width="35" height="35" viewBox="0,0,35,35"><g transform="translate(-222.5,-162.5)"><g stroke-miterlimit="10"><path d="M223.5,196.5v-33h33v33z" fill="#ffffff" stroke="#000000" stroke-width="2"/><path d="M252.64072,168.90448v9.63412c0,0.60328 -0.49084,1.09419 -1.09419,1.09419h-4.06452v11.50148c0,0.58283 -0.47256,1.05538 -1.05538,1.05538h-18.01197c-0.58289,0 -1.05538,-0.47256 -1.05538,-1.05538v-18.01209c0,-0.58283 0.47256,-1.05538 1.05538,-1.05538h4.87511v-3.16224c0,-0.6034 0.4909,-1.09419 1.09419,-1.09419h11.42363c0.00445,0 0.00884,0 0.01324,0.00024l5.72571,-0.00024c0.60334,0 1.09419,0.49078 1.09419,1.09413zM229.47004,190.07912h15.90127v-10.44609h-3.94979v2.29444c0,0.14348 -0.06822,0.27836 -0.18373,0.36343l-3.58859,2.6415l0.95149,1.29283c0.09553,0.12964 0.11448,0.30056 0.04993,0.44831c-0.06461,0.14769 -0.20316,0.24954 -0.36337,0.26741l-5.76115,0.6413c-0.16021,0.01775 -0.31776,-0.05132 -0.4133,-0.18102c-0.05805,-0.07875 -0.08783,-0.17284 -0.08783,-0.26747c0,-0.06142 0.01245,-0.12291 0.0379,-0.18102l2.32452,-5.31019c0.06461,-0.14757 0.20316,-0.24954 0.36337,-0.26741c0.16021,-0.01787 0.3177,0.0512 0.4133,0.18102l0.95155,1.29265l2.71898,-2.00128v-1.21469h-4.45056c-0.60334,0 -1.09419,-0.49096 -1.09419,-1.09419v-4.36111h-3.81979v15.90133z" fill="#000000" stroke="none" stroke-width="1"/></g></g></svg>