<svg version="1.1" xmlns="http://www.w3.org/2000/svg" xmlns:xlink="http://www.w3.org/1999/xlink" width="35" height="35" viewBox="0,0,35,35"><g transform="translate(-222.5,-162.5)"><g fill="#ffffff" stroke="#000000" stroke-miterlimit="10"><path d="M223.5,196.5v-33h33v33z" stroke-width="2" stroke-linecap="butt"/><g stroke-width="0.5" stroke-linecap="round"><path d="M248.81872,165.87471c0.15226,-0.15134 0.32217,-0.2728 0.51504,-0.27864c0.41966,-0.00488 0.86383,0.04829 1.2316,0.24806c0.51983,0.28253 0.99186,0.69042 1.3484,1.15656c0.25077,0.32356 0.35654,0.74943 0.41721,1.14003c0.0226,0.14587 0.01716,0.2082 -0.15258,0.41613c-0.67857,0.83151 -1.32489,1.71748 -2.13873,2.42497c-0.25173,0.20997 -0.68246,0.41894 -0.9622,0.24434c-1.01448,-0.63291 -2.00082,-1.45236 -2.59617,-2.48097c-0.18794,-0.32465 0.38517,-0.64776 0.6206,-0.93972c0.53777,-0.66655 1.10501,-1.32539 1.71685,-1.93076z"/><path d="M245.62322,169.49121c0.32617,-0.33944 0.37043,-0.45582 0.60142,-0.40367c0.69099,0.18201 1.35963,0.55254 1.87355,1.03231c0.45065,0.42049 0.65295,1.05276 0.91896,1.60633c0.07753,0.15933 0.3583,0.0944 0.07561,0.44462c-1.06808,1.47038 -2.34319,2.78514 -3.50157,4.17443c-3.87975,4.65356 -7.68295,9.37642 -11.60344,13.97488c-0.9854,1.1621 -0.39518,0.39227 -0.6333,0.39023c-0.60515,-0.00538 -1.23191,-0.12367 -1.7786,-0.41067c-0.43862,-0.18569 -0.75277,-0.6067 -1.07823,-0.96033c-0.20914,-0.22843 -0.50837,-0.51205 -0.51697,-0.8405c-0.00912,-0.35591 -0.44956,0.16847 0.49391,-1.00431c3.71509,-4.63832 7.52899,-9.22586 11.37024,-13.79529c1.21176,-1.4416 2.47366,-2.85015 3.77842,-4.20802z"/><path d="M241.95527,176.96896c1.77385,-2.10589 3.54385,-4.24089 5.34147,-6.356c0.44217,-0.5076 0.33102,-0.61285 0.65164,-0.66056c0.25191,-0.03874 0.4453,0.25813 0.60388,0.48485c0.29791,0.42751 0.51462,0.90116 0.65748,1.42053c0.05017,0.19004 0.31156,-0.21464 -0.25784,0.53116c-2.36294,2.9406 -4.74859,5.86822 -7.14956,8.77718c-2.58248,3.12873 -5.16419,6.2807 -7.84119,9.32385c-0.68482,0.75719 -0.40019,0.21316 -0.62294,0.22386c-0.40338,0.00613 -0.8733,0.07315 -1.25787,-0.09556c-0.39124,-0.17216 -0.84067,-0.43569 -0.97116,-0.84365c-0.05778,-0.28866 -0.07956,0.02214 0.54788,-0.72214c2.50959,-2.97745 5.05926,-5.93085 7.58615,-8.89498c0.90253,-1.05967 1.81419,-2.1227 2.71207,-3.18854z"/><path d="M247.53209,167.20218c0.13824,-0.14869 0.13918,-0.14379 0.27179,-0.1108c0.49673,0.16031 0.9998,0.34656 1.44311,0.63726c0.47899,0.3143 0.89088,0.73687 1.25948,1.17171c0.24108,0.28398 0.40335,0.62532 0.55139,0.96381c0.03695,0.08466 0.10239,0.0524 -0.0268,0.20639c-0.52361,0.63912 -1.08585,1.24698 -1.65481,1.83677c-0.14185,0.14731 -0.13432,0.11212 -0.18035,0.06296c-0.18333,-0.19573 -0.22481,-0.50762 -0.40621,-0.71131c-0.44985,-0.50559 -0.9236,-1.02549 -1.48101,-1.43005c-0.33449,-0.23301 -0.76782,-0.29892 -1.15027,-0.45026c-0.10923,-0.04325 -0.27462,-0.04695 -0.33981,-0.14672c-0.0326,-0.05559 0.01306,-0.00998 0.14428,-0.16447c0.52479,-0.61775 1.01675,-1.27048 1.5692,-1.86528z"/><path d="M230.48322,188.81164c0.18759,0.12014 0.50105,-0.24219 0.66441,-0.08068c0.26746,0.26601 -0.01704,0.90024 0.28884,1.09724c0.28109,0.17998 0.71676,-0.39415 0.98151,-0.20995c0.26652,0.18654 -0.03711,0.72954 0.20071,0.95885c0.22408,0.21643 0.70724,0.0187 0.91866,0.18017c0.10304,0.07834 0.14649,0.0955 -0.26838,0.35242c-1.65986,1.02743 -3.30392,2.10631 -5.05472,2.96923c-0.43779,0.21568 -0.4095,0.03575 -0.29957,-0.38498c0.43956,-1.68316 1.09067,-3.28119 1.69103,-4.88377c0.15132,-0.41952 0.20733,-0.52033 0.38241,-0.69471c0.06261,-0.06123 0.21799,-0.06754 0.26341,-0.00173c0.13854,0.20194 0.03264,0.57011 0.2317,0.69793z"/><path d="M227.68244,194.29045c0.09435,-0.35787 0.22104,-0.7049 0.34372,-1.04873c0.03513,-0.08901 0.03397,-0.1025 0.07296,-0.09315c0.15198,0.03822 0.30104,0.1056 0.42287,0.20796c0.12616,0.10864 0.2311,0.25646 0.287,0.40598c0.01621,0.04336 -0.02443,0.04397 -0.10568,0.09064c-0.3237,0.18689 -0.64383,0.39294 -0.98478,0.53879c-0.0853,0.03647 -0.05989,-0.0114 -0.03609,-0.10148z"/></g></g></g></svg>